<svg width="53.000000" height="52.000000" viewBox="0 0 53 52" fill="none" xmlns="http://www.w3.org/2000/svg" xmlns:xlink="http://www.w3.org/1999/xlink">
	<desc>
			Created with Pixso.
	</desc>
	<defs/>
	<path id="Vector" d="M0 26.14C0 39.07 9.56 49.82 22.08 52L22.08 33.22L15.45 33.22L15.45 26L22.08 26L22.08 20.22C22.08 13.72 26.35 10.11 32.38 10.11C34.3 10.11 36.36 10.39 38.27 10.68L38.27 17.33L34.89 17.33C31.65 17.33 30.91 18.92 30.91 20.94L30.91 26L37.98 26L36.8 33.22L30.91 33.22L30.91 52C43.43 49.82 53 39.07 53 26.14C53 11.76 41.07 0 26.5 0C11.92 0 0 11.76 0 26.14Z" fill="#266198" fill-opacity="1.000000" fill-rule="evenodd"/>
</svg>
