<svg width="45.000000" height="45.000000" viewBox="0 0 45 45" fill="none" xmlns="http://www.w3.org/2000/svg" xmlns:xlink="http://www.w3.org/1999/xlink">
	<desc>
			Created with Pixso.
	</desc>
	<defs/>
	<path id="Vector" d="M29.7 22.5C29.7 23.92 29.27 25.31 28.48 26.5C27.69 27.68 26.57 28.6 25.25 29.15C23.93 29.69 22.49 29.83 21.09 29.56C19.69 29.28 18.41 28.59 17.4 27.59C16.4 26.58 15.71 25.3 15.43 23.9C15.16 22.5 15.3 21.06 15.84 19.74C16.39 18.42 17.31 17.3 18.49 16.51C19.68 15.72 21.07 15.3 22.5 15.3C24.4 15.3 26.23 16.06 27.58 17.41C28.93 18.76 29.69 20.59 29.7 22.5ZM45 12.6L45 32.39C45 35.74 43.67 38.94 41.3 41.3C38.94 43.67 35.74 45 32.4 45L12.6 45C9.25 45 6.05 43.67 3.69 41.3C1.32 38.94 0 35.74 0 32.39L0 12.6C0 9.25 1.32 6.05 3.69 3.69C6.05 1.32 9.25 0 12.6 0L32.4 0C35.74 0 38.94 1.32 41.3 3.69C43.67 6.05 45 9.25 45 12.6ZM33.3 22.5C33.3 20.36 32.66 18.27 31.47 16.49C30.29 14.72 28.6 13.33 26.63 12.52C24.65 11.7 22.48 11.49 20.39 11.9C18.29 12.32 16.37 13.35 14.86 14.86C13.35 16.37 12.32 18.29 11.9 20.39C11.49 22.48 11.7 24.65 12.52 26.63C13.33 28.6 14.72 30.29 16.49 31.48C18.27 32.66 20.36 33.3 22.5 33.3C25.36 33.3 28.11 32.16 30.13 30.13C32.16 28.11 33.3 25.36 33.3 22.5ZM36.9 10.8C36.9 10.26 36.74 9.74 36.44 9.3C36.14 8.85 35.72 8.5 35.23 8.3C34.73 8.1 34.19 8.04 33.67 8.15C33.14 8.25 32.66 8.51 32.29 8.89C31.91 9.26 31.65 9.74 31.55 10.27C31.44 10.79 31.5 11.33 31.7 11.83C31.9 12.32 32.25 12.74 32.7 13.04C33.14 13.34 33.66 13.5 34.2 13.5C34.91 13.5 35.6 13.21 36.1 12.7C36.61 12.2 36.9 11.51 36.9 10.8Z" fill="#FFFFFF" fill-opacity="1.000000" fill-rule="nonzero"/>
</svg>
