<svg width="53.000000" height="52.000000" viewBox="0 0 53 52" fill="none" xmlns="http://www.w3.org/2000/svg" xmlns:xlink="http://www.w3.org/1999/xlink">
	<desc>
			Created with Pixso.
	</desc>
	<defs/>
	<path id="Vector" d="M53 26C53 40.35 41.13 52 26.5 52C11.86 52 0 40.35 0 26C0 11.64 11.86 0 26.5 0C41.13 0 53 11.64 53 26ZM27.44 19.19C24.87 20.24 19.72 22.42 11.99 25.72C10.74 26.21 10.08 26.69 10.02 27.16C9.92 27.95 10.93 28.26 12.3 28.68C12.49 28.74 12.68 28.8 12.88 28.87C14.24 29.3 16.06 29.8 17 29.82C17.86 29.84 18.82 29.49 19.88 28.78C27.09 24 30.82 21.58 31.05 21.53C31.22 21.49 31.45 21.45 31.6 21.58C31.76 21.72 31.74 21.97 31.73 22.04C31.62 22.46 27.66 26.08 25.61 27.95C24.97 28.53 24.52 28.95 24.42 29.04C24.22 29.25 24 29.45 23.8 29.65C22.54 30.83 21.6 31.73 23.85 33.18C24.94 33.88 25.8 34.46 26.67 35.04C27.61 35.67 28.55 36.3 29.77 37.08C30.08 37.28 30.37 37.48 30.66 37.69C31.76 38.46 32.75 39.14 33.97 39.04C34.67 38.97 35.41 38.32 35.78 36.37C36.65 31.76 38.38 21.79 38.78 17.68C38.8 17.34 38.79 16.99 38.74 16.65C38.7 16.38 38.57 16.13 38.36 15.95C38.04 15.7 37.55 15.64 37.33 15.65C36.33 15.66 34.8 16.19 27.44 19.19Z" fill="#73B3FF" fill-opacity="1.000000" fill-rule="evenodd"/>
</svg>
