<svg width="52.000000" height="52.000000" viewBox="0 0 52 52" fill="none" xmlns="http://www.w3.org/2000/svg" xmlns:xlink="http://www.w3.org/1999/xlink">
	<desc>
			Created with Pixso.
	</desc>
	<defs/>
	<path id="Vector" d="M48.11 12.02C40.33 -0.01 24.45 -3.58 12.13 3.89C0.14 11.37 -3.75 27.62 4.03 39.64L4.68 40.62L2.08 50.37L11.81 47.77L12.78 48.42C16.99 50.7 21.53 52 26.07 52C30.93 52 35.79 50.7 40 48.09C52 40.29 55.56 24.37 48.11 12.02ZM41.3 37.04C40 39 38.38 40.29 36.11 40.62C34.82 40.62 33.2 41.27 26.72 38.67C21.21 36.07 16.67 31.84 13.43 26.97C11.48 24.69 10.51 21.77 10.19 18.84C10.19 16.24 11.16 13.97 12.78 12.34C13.43 11.69 14.07 11.37 14.72 11.37L16.34 11.37C16.99 11.37 17.64 11.37 17.96 12.67C18.61 14.29 20.23 18.19 20.23 18.52C20.56 18.84 20.56 19.49 20.23 19.82C20.56 20.47 20.23 21.12 19.91 21.44C19.58 21.77 19.26 22.42 18.94 22.74C18.29 23.07 17.96 23.72 18.29 24.37C19.58 26.32 21.21 28.27 22.83 29.89C24.77 31.52 26.72 32.82 28.98 33.79C29.63 34.12 30.28 34.12 30.6 33.47C30.93 32.82 32.55 31.2 33.2 30.54C33.85 29.89 34.17 29.89 34.82 30.22L40 32.82C40.65 33.14 41.3 33.47 41.62 33.79C41.95 34.77 41.95 36.07 41.3 37.04Z" fill="#73B258" fill-opacity="1.000000" fill-rule="nonzero"/>
</svg>
